<?xml version="1.0" encoding="utf-8"?><!DOCTYPE svg PUBLIC "-//W3C//DTD SVG 1.1//EN" "http://www.w3.org/Graphics/SVG/1.1/DTD/svg11.dtd"><svg version="1.1" id="Contours" xmlns="http://www.w3.org/2000/svg" xmlns:xlink="http://www.w3.org/1999/xlink" x="0px" y="0px" width="2659.772461px" height="596.190552px" viewBox="0.000002 -0.000031 2659.772461 596.190552" enable-background="new 0 0 2659.772461 2659.772461" xml:space="preserve" stroke="#fbbf24" fill="none" stroke-linecap='round' stroke-linejoin='round'><path class="selected"  fill="#fbbf24" opacity="1.000000" stroke="none" 
 	d="
M1905.569276 217.393808 C1899.860991 204.714448 1888.935279 194.480113 1875.910338 189.611684 C1869.866599 187.352673 1869.023504 178.383685 1872.857287 173.194079 C1876.691069 168.004474 1883.277649 165.771659 1889.502113 164.072856 C1911.383492 158.100918 1934.081141 155.127700 1956.762424 155.262273 C1961.690934 155.291514 1966.933885 155.566121 1970.970832 158.393511 C1977.908097 163.252223 1978.352091 173.175281 1978.140707 181.642160 C1976.565926 244.718771 1976.922782 307.843592 1979.210605 370.898366 C1979.981426 392.142992 1982.515191 416.395163 1999.758771 428.828476 C2005.083772 432.668012 2011.496059 435.050693 2016.092768 439.737687 C2020.689478 444.424680 2022.611127 452.896545 2017.693470 457.245603 C2014.676938 459.913350 2010.262273 460.069085 2006.235354 460.084691 C1962.776269 460.253114 1919.317184 460.421538 1875.858100 460.589962 C1868.599120 460.618094 1866.163530 449.780269 1870.287234 443.806270 C1874.410937 437.832272 1881.728012 435.138027 1887.708524 431.023775 C1898.312976 423.728517 1904.848479 411.634162 1907.978078 399.148939 C1911.107676 386.663716 1911.186397 373.644303 1911.247350 360.772961 C1911.403620 327.773398 1911.559891 294.773835 1911.716161 261.774272 C1911.787463 246.717640 1911.750372 231.123385 1905.569276 217.393808 z"/><path class="selected"  fill="#fbbf24" opacity="1.000000" stroke="none" 
 	d="
M277.996648 219.175147 C272.172133 205.394363 260.595820 194.152325 246.650334 188.733983 C241.491019 186.729397 240.661181 179.153575 243.774012 174.576767 C246.886844 169.999958 252.405268 167.788113 257.656790 166.039284 C281.344212 158.151060 306.451935 154.549337 331.401637 155.460529 C334.549215 155.575482 337.784629 155.783398 340.634946 157.123605 C349.303215 161.199391 350.298450 172.914712 350.090910 182.491133 C348.719607 245.765110 349.030814 309.075542 351.024085 372.332980 C351.444019 385.659789 352.062180 399.479694 358.153254 411.340511 C365.064647 424.798688 378.046118 433.892647 390.531435 442.437045 C395.138343 445.589809 393.672694 453.366671 389.187131 456.689810 C384.701569 460.012948 378.694690 460.163480 373.112285 460.180300 C331.360566 460.306102 289.608847 460.431903 247.857128 460.557704 C240.617695 460.579517 238.185175 449.778119 242.290178 443.814998 C246.395182 437.851877 253.687684 435.154133 259.651029 431.049456 C270.261007 423.746420 276.804523 411.648219 279.945663 399.156654 C283.086803 386.665088 283.179630 373.637111 283.254588 360.756880 C283.442340 328.494924 283.630093 296.232968 283.817846 263.971012 C283.906117 248.803095 283.901772 233.146654 277.996648 219.175148 z"/><path class="selected"  fill="#fbbf24" opacity="1.000000" stroke="none" 
 	d="
M1716.706625 199.444898 C1726.584219 188.522367 1737.456746 178.181691 1750.517963 171.379252 C1763.579179 164.576813 1779.146733 161.596980 1793.243173 165.858312 C1807.339612 170.119644 1819.327502 182.547990 1820.581002 197.221002 C1821.834503 211.894015 1810.314452 227.217696 1795.603384 227.890762 C1783.618419 228.439106 1773.080353 220.285848 1761.400119 217.545003 C1739.035368 212.296957 1716.088460 228.409245 1705.768009 248.932703 C1695.447559 269.456162 1694.760452 293.304704 1694.282260 316.271972 C1694.089471 325.531516 1693.896682 334.791059 1693.703893 344.050602 C1693.216170 367.475557 1693.187762 392.563582 1706.201016 412.047463 C1715.680378 426.240276 1730.949420 435.564330 1741.557306 448.934706 C1732.967543 457.494986 1719.812815 459.039129 1707.714564 459.872628 C1670.028686 462.468967 1632.184958 462.772116 1594.462322 460.779840 C1587.570499 460.415857 1585.348522 450.359502 1589.043539 444.530561 C1592.738557 438.701620 1599.492035 435.741429 1605.029209 431.622034 C1615.636293 423.730865 1621.990970 411.163378 1624.927813 398.273237 C1627.864656 385.383096 1627.724588 372.017566 1627.569794 358.798004 C1627.182191 325.696356 1626.794589 292.594708 1626.406987 259.493060 C1626.294489 249.885599 1626.161782 240.136527 1623.462183 230.915456 C1617.943145 212.063979 1602.612428 197.980873 1587.944733 184.915776 C1604.184190 165.261145 1632.825101 162.651318 1658.296490 161.540989 C1669.147450 161.067982 1681.671097 161.294561 1688.590856 169.666179 C1693.781842 175.946304 1694.035117 184.879808 1697.407787 192.296775 C1700.780457 199.713742 1711.241599 205.488060 1716.706624 199.444898 z"/><path class="selected"  fill="#fbbf24" opacity="1.000000" stroke="none" 
 	d="
M2639.617894 189.431035 C2620.791606 197.423453 2596.288422 195.806018 2583.721973 211.942691 C2577.763732 219.593719 2576.065842 229.644699 2574.849292 239.265449 C2569.588818 280.866454 2569.741748 323.148838 2575.303014 364.710701 C2576.835604 376.164442 2579.012210 388.113820 2586.209173 397.154878 C2593.284937 406.043681 2604.452897 410.935313 2615.692289 412.594626 C2626.931681 414.253940 2638.379627 413.006084 2649.647157 411.550060 C2656.190277 410.704538 2661.018007 418.792597 2659.487556 425.210154 C2657.957104 431.627711 2652.468114 436.243366 2647.098017 440.076041 C2629.902330 452.348709 2610.110610 461.724858 2589.075828 463.686461 C2568.041046 465.648064 2545.687940 459.470327 2530.857603 444.424695 C2509.889010 423.151697 2507.882943 390.196566 2507.126445 360.336056 C2506.256194 325.985500 2505.385943 291.634943 2504.515692 257.284387 C2503.940441 234.578079 2501.495425 208.280539 2482.625626 195.637833 C2476.366424 191.444187 2468.661747 189.128525 2463.766713 183.401142 C2458.871679 177.673758 2459.584054 166.427587 2466.981546 164.998815 C2484.327110 161.648646 2496.044248 145.421332 2503.487061 129.399575 C2510.929874 113.377818 2516.323946 95.722378 2528.793923 83.208711 C2535.741799 76.236493 2546.623415 71.172092 2555.302898 75.814438 C2559.577257 78.100641 2562.458849 82.335519 2564.599415 86.684638 C2569.468450 96.577358 2571.315886 107.637177 2574.626790 118.154369 C2577.937694 128.671560 2583.245312 139.282938 2592.668338 145.008318 C2597.976160 148.233323 2604.158804 149.639433 2610.219295 150.997398 C2617.790977 152.693973 2625.362658 154.390548 2632.934340 156.087122 C2641.778379 158.068792 2652.354569 161.774634 2653.872009 170.710037 C2655.291291 179.067435 2647.420895 186.118385 2639.617894 189.431033 z"/><path class="selected"  fill="#fbbf24" opacity="1.000000" stroke="none" 
 	d="
M107.494796 101.133566 C106.971843 115.243167 107.370146 129.917276 113.547731 142.613407 C121.280908 158.506577 136.958661 168.999922 152.938200 176.553012 C157.472959 178.696468 162.585600 181.206541 164.037849 186.007522 C165.838291 191.959597 160.743578 197.990259 155.039259 200.466048 C149.334939 202.941836 142.891167 203.228573 137.108176 205.514577 C127.078821 209.479157 120.164041 219.121466 116.848353 229.383634 C113.532666 239.645801 113.303113 250.612086 113.102918 261.394748 C112.478351 295.034302 111.853784 328.673856 111.229217 362.313410 C110.774012 386.830989 111.978466 415.065997 131.224715 430.261417 C137.850360 435.492533 147.324088 441.268222 145.205254 449.439774 C143.527479 455.910328 135.568064 458.056450 128.942636 458.943410 C92.796577 463.782357 56.189817 465.173955 19.780707 463.093178 C14.077945 462.767269 7.944784 462.185421 3.619430 458.454601 C-0.705924 454.723781 -1.584542 446.674792 3.356827 443.809381 C18.612649 434.962815 28.292316 418.559313 32.826227 401.516856 C37.360138 384.474400 37.358872 366.599757 37.328031 348.964544 C37.272200 317.040929 37.216371 285.117315 37.160542 253.193700 C37.129354 235.360478 36.263814 215.450301 23.465794 203.031143 C16.201988 195.982372 5.067906 191.090030 3.555430 181.082010 C2.101745 171.462988 10.550073 163.638282 17.039710 156.390982 C41.099111 129.522655 44.681428 90.124172 63.051238 59.086907 C87.901019 17.101212 140.865943 -5.365449 188.802533 3.711640 C199.832273 5.800189 210.912051 9.566293 219.244461 17.088801 C227.576871 24.611310 232.629119 36.508565 229.649988 47.331779 C226.670856 58.154993 214.178847 66.149703 203.675334 62.188211 C190.130101 57.079508 176.499085 52.198250 162.789970 47.547188 C156.446921 45.395193 149.902646 43.265833 143.213743 43.617853 C130.792174 44.271571 120.112584 53.633219 114.620482 64.793842 C109.128379 75.954465 107.955506 88.703343 107.494797 101.133566 z"/><path class="selected"  fill="#fbbf24" opacity="1.000000" stroke="none" 
 	d="
M276.339484 29.632546 C279.759117 22.350804 286.672460 17.118869 294.230506 14.363223 C301.788553 11.607576 309.982887 11.096258 318.024787 11.309538 C325.773817 11.515050 333.851316 12.487536 340.304333 16.782681 C352.458712 24.872665 354.863669 41.712002 353.783742 56.272584 C353.548081 59.449991 353.181057 62.696308 351.773823 65.554829 C350.467719 68.207923 348.349118 70.357701 346.266800 72.457408 C343.265132 75.484145 340.226048 78.540921 336.596735 80.776816 C330.032120 84.821050 322.050250 85.864006 314.339889 85.882380 C306.211910 85.901748 297.928965 84.840695 290.589003 81.349367 C283.249041 77.858038 276.922342 71.690799 274.557907 63.914305 C273.202278 59.455713 273.183785 54.715334 273.205354 50.055260 C273.237498 43.110287 273.387301 35.918903 276.339484 29.632546 z"/><path class="selected"  fill="#fbbf24" opacity="1.000000" stroke="none" 
 	d="
M1901.132818 49.144867 C1901.105910 42.219528 1901.555958 35.052137 1904.704040 28.883618 C1908.257442 21.920895 1914.990611 16.939206 1922.337045 14.267861 C1929.683479 11.596515 1937.636428 11.038746 1945.451170 11.228449 C1954.330047 11.443982 1963.705115 12.804388 1970.600669 18.401910 C1980.640124 26.551518 1982.492996 41.079820 1981.928423 53.998334 C1981.745398 58.186303 1981.349057 62.506870 1979.354899 66.194132 C1977.921208 68.845073 1975.746427 71.005845 1973.603393 73.124892 C1970.641298 76.053834 1967.642157 79.011911 1964.073001 81.159895 C1957.123185 85.342425 1948.644762 86.084751 1940.537610 85.824757 C1926.678223 85.380290 1911.186037 81.048391 1904.754002 68.763884 C1901.638561 62.813723 1901.158914 55.861243 1901.132818 49.144868 z"/><path class="selected"  fill="#fbbf24" opacity="1.000000" stroke="none" 
 	d="
M478.238731 413.455488 C479.774824 407.279917 480.195638 400.889192 480.588289 394.537570 C486.551185 298.080245 487.422237 201.308346 483.196607 104.759313 C482.583302 90.746260 481.824698 76.529416 477.349000 63.236188 C472.873302 49.942961 464.147724 37.468322 451.419023 31.575789 C445.109194 28.654762 445.108063 18.872203 449.795605 13.736709 C454.483147 8.601216 461.800065 6.973902 468.651639 5.789727 C487.140076 2.594323 505.849517 0.678307 524.601864 0.059920 C532.419015 -0.197863 541.196986 0.147601 546.611736 5.791606 C551.791280 11.190449 552.023990 19.500636 551.946015 26.981886 C551.622491 58.021503 551.298969 89.061120 550.975447 120.100736 C550.281522 186.677857 549.590188 253.345063 554.370040 319.754004 C556.019025 342.664210 558.355313 365.715825 565.157259 387.655064 C571.959205 409.594303 583.549281 430.552076 601.156680 445.302539 C604.455086 448.065753 603.262513 453.813496 599.925136 456.529512 C596.587759 459.245529 592.024047 459.753025 587.735897 460.108830 C549.369138 463.292254 510.718677 463.048656 472.395095 459.381879 C467.793015 458.941556 462.887715 458.325313 459.371098 455.324242 C455.854481 452.323171 454.793817 446.055698 458.488967 443.277409 C468.206106 435.971346 475.304166 425.253354 478.238731 413.455488 z"/><path class="selected"  fill="#fbbf24" opacity="1.000000" stroke="none" 
 	d="
M856.960177 226.078029 C847.323525 209.378689 824.419664 203.374101 806.196433 209.670675 C787.973202 215.967249 774.519093 232.228530 767.407977 250.149608 C760.296861 268.070686 758.725372 287.661127 758.010191 306.928237 C756.281309 353.504674 759.114666 400.249329 766.456542 446.275955 C767.586079 453.357082 758.240939 456.953031 751.091217 457.500460 C730.682765 459.063060 710.055093 457.734593 690.015674 453.567062 C681.534055 451.803168 672.624475 449.213814 666.946796 442.670638 C661.269118 436.127462 660.787600 424.474487 668.078384 419.795421 C680.862460 411.590880 688.722944 397.265321 692.289105 382.499496 C695.855266 367.733671 695.610700 352.350352 695.345811 337.162300 C694.850556 308.765679 694.355301 280.369058 693.860046 251.972437 C693.427812 227.189250 691.592827 199.251124 672.814728 183.071625 C682.990507 167.880524 704.133947 165.850326 722.410566 165.319946 C732.411971 165.029710 743.474423 165.102931 750.962980 171.738732 C759.881669 179.641808 760.963420 194.666716 771.316201 200.567698 C792.692614 188.314493 815.363327 177.592363 839.637111 173.364418 C863.910894 169.136473 890.107218 171.928349 910.926348 185.106207 C916.982222 188.939386 922.565080 193.617710 929.136958 196.477306 C935.708836 199.336902 943.790018 200.085663 949.733646 196.080647 C969.302725 182.894348 989.829861 170.418268 1012.625839 164.321490 C1035.421818 158.224712 1061.016290 159.169675 1081.069581 171.607233 C1100.049751 183.379212 1112.056769 204.131795 1117.883519 225.692763 C1123.710269 247.253731 1124.046018 269.863690 1124.344724 292.196114 C1124.548357 307.420564 1124.751990 322.645013 1124.955624 337.869462 C1125.355334 367.753457 1127.687207 401.799033 1151.067143 420.416001 C1156.429093 424.685608 1155.824691 433.559500 1151.525258 438.897562 C1147.225825 444.235624 1140.436376 446.823157 1133.883148 448.831947 C1114.955601 454.633892 1095.146088 457.549216 1075.349523 457.446218 C1068.421192 457.410173 1059.223273 454.677049 1059.627989 447.760454 C1062.895246 391.923490 1062.924476 335.897225 1059.715485 280.056885 C1058.973064 267.137859 1057.985108 253.924256 1052.753825 242.088459 C1046.780525 228.573847 1035.141747 217.550732 1021.128455 212.865362 C1007.115162 208.179992 990.929790 210.088384 978.699792 218.380080 C966.597086 226.585476 959.014831 240.211150 955.238485 254.337127 C951.462139 268.463105 951.098980 283.244943 950.758332 297.863013 C950.285057 318.172456 949.811781 338.481899 949.338505 358.791342 C948.875963 378.640203 949.121593 400.545851 962.244814 415.444586 C968.327880 422.350662 977.552707 429.327145 975.446119 438.285931 C973.532907 446.422338 963.566545 449.250446 955.277061 450.320932 C925.134263 454.213507 894.537499 454.579100 864.310297 451.407872 C858.924646 450.842847 852.878183 449.774442 849.844665 445.288658 C844.673001 437.641111 852.138078 428.150423 857.237753 420.454685 C867.818998 404.486911 868.609514 384.186657 869.048731 365.036209 C869.961078 325.256688 870.815456 285.127008 863.393068 246.035439 C862.082857 239.134935 860.470782 232.161552 856.960177 226.078029 z"/><path class="selected"  fill="#fbbf24" opacity="1.000000" stroke="none" 
 	d="
M2107.168983 378.120523 C2109.920988 337.192026 2109.987572 296.083165 2107.368165 255.145967 C2105.601359 227.533594 2100.942544 196.825243 2079.082522 179.863398 C2088.238245 165.378306 2108.389757 163.840121 2125.525814 163.866495 C2134.505325 163.880315 2143.484837 163.894136 2152.464348 163.907956 C2159.705663 163.919102 2167.672084 164.196278 2173.034778 169.062312 C2178.746686 174.245219 2179.512363 182.763401 2182.304737 189.953052 C2185.097110 197.142702 2193.247969 204.051566 2199.854672 200.071628 C2224.845263 185.017070 2251.233211 170.593036 2280.197551 167.094987 C2309.161892 163.596937 2341.488560 173.354589 2357.270913 197.892044 C2369.230257 216.485712 2369.944537 239.895174 2370.283484 262.000276 C2370.584662 281.642190 2370.885840 301.284103 2371.187018 320.926017 C2371.467826 339.239474 2371.778417 357.775152 2376.538759 375.461326 C2381.299101 393.147499 2391.056560 410.181397 2406.524809 419.989295 C2411.387322 423.072447 2411.271538 430.730707 2407.727278 435.268114 C2404.183019 439.805522 2398.434796 441.934065 2392.932758 443.630360 C2364.354438 452.441141 2333.968156 455.341259 2304.239134 452.095427 C2301.722811 451.820694 2298.927482 451.345388 2297.412459 449.317565 C2295.081398 446.197494 2297.253215 441.864400 2299.088006 438.428962 C2307.746190 422.217518 2307.985022 402.990709 2308.021138 384.612087 C2308.084017 352.613590 2308.145696 320.579400 2305.820094 288.665463 C2304.075734 264.727839 2300.263783 239.228729 2284.152224 221.439118 C2263.250280 198.360193 2224.431935 195.961317 2199.083769 214.044415 C2192.970583 218.405493 2187.534401 223.797189 2183.558410 230.167553 C2174.044607 245.410646 2173.717767 264.442092 2173.681407 282.410482 C2173.633788 305.942472 2173.586169 329.474462 2173.538550 353.006452 C2173.475879 383.976899 2174.516015 418.010971 2195.122270 441.131411 C2198.302714 444.699903 2196.592677 450.755051 2192.849378 453.727771 C2189.106078 456.700491 2184.092878 457.394113 2179.339413 457.898020 C2150.651123 460.939209 2121.645799 460.981161 2092.948833 458.022967 C2083.100042 457.007716 2070.953596 453.486832 2069.508628 443.691860 C2068.577635 437.380958 2072.970083 431.444243 2078.072596 427.615589 C2083.175109 423.786935 2089.197214 421.220061 2093.920821 416.932665 C2104.310280 407.502642 2106.227680 392.119814 2107.168983 378.120523 z"/><path class="selected"  fill="#fbbf24" opacity="1.000000" stroke="none" 
 	d="
M1335.951659 445.778019 C1330.519429 443.201456 1323.751351 446.396331 1320.358851 451.360074 C1316.966350 456.323818 1316.134016 462.549978 1315.485462 468.527200 C1313.246764 489.159610 1312.119698 510.334129 1317.429464 530.396892 C1322.739230 550.459656 1335.415460 569.481472 1354.369370 577.934721 C1359.007132 580.003115 1358.551890 587.393523 1354.709834 590.714020 C1350.867778 594.034517 1345.373085 594.411840 1340.299662 594.629721 C1297.331504 596.474998 1253.881555 598.286498 1211.682326 589.986341 C1209.504505 585.341413 1211.416365 579.680195 1214.670109 575.713911 C1217.923854 571.747628 1222.344818 568.944493 1226.194962 565.554117 C1245.533765 548.524676 1248.055005 519.783903 1248.981658 494.032545 C1251.764763 416.691063 1252.443258 339.273859 1251.016141 261.895478 C1250.760512 248.035245 1250.407437 233.978458 1246.429737 220.698800 C1242.452037 207.419142 1234.348292 194.788889 1222.061848 188.369022 C1216.804110 185.621768 1216.274152 177.725196 1219.584119 172.802257 C1222.894085 167.879317 1228.697238 165.322549 1234.299268 163.371018 C1251.023851 157.544832 1268.841397 154.873308 1286.539245 155.538277 C1297.562604 155.952462 1311.411845 160.592872 1311.834112 171.615923 C1312.122348 179.140190 1321.266016 183.595051 1328.669504 182.221719 C1336.072992 180.848388 1342.093386 175.697390 1348.228192 171.331404 C1387.416451 143.442087 1445.305746 145.596706 1482.312394 176.321965 C1513.096758 201.881090 1527.821669 242.872932 1529.740490 282.838718 C1532.174766 333.540567 1514.638912 386.299889 1477.240462 420.621298 C1439.842012 454.942707 1381.814507 467.531234 1335.951659 445.778019 M1433.440827 213.513969 C1419.430173 198.060424 1398.032420 189.438719 1377.272879 191.476351 C1356.513338 193.513983 1336.986391 206.385915 1327.465987 224.945882 C1320.851265 237.841239 1319.075662 252.616866 1317.932026 267.064590 C1315.585168 296.712809 1315.451398 326.535964 1317.532198 356.204043 C1317.987878 362.701128 1318.554472 369.221667 1320.093736 375.550208 C1324.838240 395.056796 1339.292706 411.945435 1357.832882 419.644733 C1376.373058 427.344030 1398.539065 425.663010 1415.706081 415.255759 C1439.509873 400.825059 1451.387688 372.607761 1456.454076 345.236292 C1461.255677 319.295345 1461.282877 292.478471 1456.533907 266.527837 C1453.018380 247.317319 1446.558313 227.982365 1433.440826 213.513971 z"/></svg>